<svg width="16" height="16" viewBox="0 0 16 16" fill="none" xmlns="http://www.w3.org/2000/svg">
<path d="M16 2C16 1.46957 15.7893 0.960859 15.4142 0.585786C15.0391 0.210713 14.5304 -6.35145e-07 14 -6.11959e-07L2 -8.74228e-08C1.46957 -6.42368e-08 0.960859 0.210714 0.585786 0.585787C0.210713 0.96086 -6.35145e-07 1.46957 -6.11959e-07 2L-8.74228e-08 14C-6.42368e-08 14.5304 0.210714 15.0391 0.585786 15.4142C0.960859 15.7893 1.46957 16 2 16L14 16C14.5304 16 15.0391 15.7893 15.4142 15.4142C15.7893 15.0391 16 14.5304 16 14L16 2ZM5.197 10.096L9.293 6L6.525 6C6.39239 6 6.26521 5.94732 6.17145 5.85355C6.07768 5.75979 6.025 5.63261 6.025 5.5C6.025 5.36739 6.07768 5.24021 6.17145 5.14645C6.26521 5.05268 6.39239 5 6.525 5L10.5 5C10.6326 5 10.7598 5.05268 10.8536 5.14645C10.9473 5.24021 11 5.36739 11 5.5L11 9.475C11 9.60761 10.9473 9.73478 10.8536 9.82855C10.7598 9.92232 10.6326 9.975 10.5 9.975C10.3674 9.975 10.2402 9.92232 10.1464 9.82855C10.0527 9.73478 10 9.60761 10 9.475L10 6.707L5.904 10.803C5.8097 10.8941 5.6834 10.9445 5.5523 10.9433C5.4212 10.9422 5.29579 10.8896 5.20309 10.7969C5.11039 10.7042 5.0578 10.5788 5.05666 10.4477C5.05552 10.3166 5.10592 10.1903 5.197 10.096Z" fill="#c3443f"/>
</svg>
