<svg width="24" height="24" viewBox="0 0 151 148" fill="none" xmlns="http://www.w3.org/2000/svg">
<path d="M50.5058 119.169C50.5058 119.781 49.8056 120.271 48.9228 120.271C47.9181 120.363 47.2179 119.873 47.2179 119.169C47.2179 118.557 47.9181 118.068 48.801 118.068C49.7143 117.976 50.5058 118.466 50.5058 119.169ZM41.0379 117.792C40.8248 118.404 41.4337 119.108 42.347 119.292C43.1385 119.598 44.0518 119.292 44.2345 118.68C44.4171 118.068 43.8387 117.364 42.9254 117.088C42.1339 116.874 41.251 117.18 41.0379 117.792ZM54.494 117.272C53.6111 117.486 53.0022 118.068 53.0935 118.772C53.1849 119.384 53.9764 119.781 54.8897 119.567C55.7726 119.353 56.3815 118.772 56.2901 118.159C56.1988 117.578 55.3768 117.18 54.494 117.272ZM74.5258 0C32.3006 0 0 32.2253 0 74.6721C0 108.611 21.2496 137.654 51.6018 147.875C55.4986 148.579 56.8686 146.162 56.8686 144.172C56.8686 142.275 56.7772 131.809 56.7772 125.382C56.7772 125.382 35.4667 129.972 30.9915 116.262C30.9915 116.262 27.521 107.356 22.5282 105.061C22.5282 105.061 15.5567 100.257 23.0153 100.348C23.0153 100.348 30.5958 100.96 34.7665 108.244C41.4337 120.057 52.6065 116.66 56.9599 114.64C57.6601 109.744 59.6389 106.347 61.8309 104.327C44.8129 102.429 27.6427 99.9505 27.6427 70.5101C27.6427 62.0942 29.9565 57.8709 34.8274 52.4847C34.0359 50.4955 31.4482 42.2938 35.619 31.7051C41.9817 29.7158 56.625 39.968 56.625 39.968C62.7137 38.2542 69.2591 37.3667 75.7436 37.3667C82.228 37.3667 88.7734 38.2542 94.8621 39.968C94.8621 39.968 109.505 29.6852 115.868 31.7051C120.039 42.3244 117.451 50.4955 116.66 52.4847C121.531 57.9015 124.514 62.1248 124.514 70.5101C124.514 100.042 106.583 102.399 89.5649 104.327C92.3657 106.744 94.7403 111.335 94.7403 118.527C94.7403 128.84 94.649 141.602 94.649 144.111C94.649 146.1 96.0494 148.518 99.9157 147.814C130.359 137.654 151 108.611 151 74.6721C151 32.2253 116.751 0 74.5258 0ZM29.5911 105.551C29.1954 105.857 29.2867 106.561 29.8042 107.142C30.2913 107.632 30.9915 107.846 31.3873 107.448C31.7831 107.142 31.6917 106.438 31.1742 105.857C30.6871 105.367 29.9869 105.153 29.5911 105.551ZM26.3032 103.072C26.0901 103.47 26.3946 103.96 27.0034 104.266C27.4905 104.572 28.0994 104.48 28.3125 104.051C28.5256 103.653 28.2212 103.164 27.6123 102.858C27.0034 102.674 26.5163 102.766 26.3032 103.072ZM36.1669 113.967C35.6798 114.365 35.8625 115.283 36.5627 115.864C37.2629 116.568 38.1458 116.66 38.5415 116.17C38.9373 115.772 38.7546 114.854 38.1458 114.273C37.476 113.569 36.5627 113.477 36.1669 113.967ZM32.6964 109.468C32.2093 109.774 32.2093 110.57 32.6964 111.274C33.1835 111.978 34.0054 112.284 34.4012 111.978C34.8883 111.58 34.8883 110.784 34.4012 110.08C33.975 109.376 33.1835 109.07 32.6964 109.468Z" fill="white"/>
</svg>
