<svg
                width="24"
                height="24"
                viewBox="0 0 24 24"
                fill="none"
                xmlns="http://www.w3.org/2000/svg"
                className="-rotate-90"
              >
                <path
                  d="M4.70557 0.00598145C2.12036 0.00598145 0.0045166 2.12177 0.0045166 4.70703V19.2952C0.0045166 21.8804 2.12031 23.9955 4.70557 23.9955H19.2938C21.879 23.9955 23.994 21.8804 23.994 19.2952V4.70703C23.994 2.12182 21.879 0.00598145 19.2938 0.00598145H4.70557ZM5.88795 3.96473C7.1275 3.96473 7.89102 4.77848 7.91458 5.84813C7.91458 6.89417 7.12745 7.73079 5.86397 7.73079H5.84072C4.62476 7.73079 3.83883 6.89422 3.83883 5.84813C3.83883 4.7785 4.64854 3.96473 5.88793 3.96473H5.88795ZM16.5699 8.96417C18.9538 8.96417 20.7408 10.5223 20.7408 13.8706V20.1214H17.118V14.2897C17.118 12.8243 16.5936 11.8245 15.2825 11.8245C14.2816 11.8245 13.685 12.4984 13.4231 13.1493C13.3274 13.3822 13.3039 13.7075 13.3039 14.0333V20.1214H9.68103C9.68103 20.1214 9.72858 10.2427 9.68103 9.21982H13.3046V10.7636C13.7861 10.0208 14.6473 8.96415 16.5699 8.96415V8.96417ZM4.05253 9.22061H7.6754V20.1215H4.05253V9.22061V9.22061Z"
                  fill="#EB4A4B"
                />
              </svg>