<svg width="80" height="80" viewBox="0 0 569 153" fill="none" xmlns="http://www.w3.org/2000/svg">
<path d="M38.7011 148.849L34.6797 147.531C34.6797 147.531 35.1926 127.37 27.8523 125.958C23.012 120.403 28.5973 -111.345 46.1814 125.164C46.1814 125.164 40.1629 128.158 39.0237 133.241C37.8848 138.328 38.7011 148.849 38.7011 148.849" fill="url(#paint0_linear_156_137)"/>
<path d="M40.8694 129.379C40.8694 129.379 75.813 106.582 67.6266 59.2377C59.7427 24.8408 41.1288 13.5331 39.1287 9.21614C36.9266 6.16092 34.7087 0.745825 34.7087 0.745825L36.1951 96.5855C36.1951 96.5855 33.1206 125.849 40.8694 129.379" fill="url(#paint1_linear_156_137)"/>
<path d="M32.6345 130.653C32.6345 130.653 -0.14376 108.503 1.74206 69.4231C3.62854 30.3416 26.7796 11.1262 31.2887 7.64021C34.2038 4.5624 34.3244 3.37647 34.5499 0.339865C36.593 4.68737 36.2533 65.2761 36.4698 72.3579C37.3097 99.9254 34.9284 125.449 32.6345 130.653" fill="url(#paint2_linear_156_137)"/>
<path d="M428.705 118.039C431.024 119.875 435.659 120.631 439.746 120.631C445.045 120.631 450.234 119.657 455.312 115.124C460.499 110.477 464.034 103.35 464.034 92.0104C464.034 81.1021 459.838 72.2454 451.227 67.0614C446.368 64.0375 440.078 62.8505 432.901 62.8505C430.803 62.8505 428.705 62.958 427.49 63.4972C427.158 63.7131 426.496 64.5778 426.496 65.0107C426.276 66.9539 426.276 81.7498 426.276 90.498C426.276 99.461 426.276 111.989 426.496 113.503C426.609 114.798 427.269 117.066 428.705 118.038V118.039ZM406.67 57.9888C408.546 57.9888 415.678 58.3121 418.991 58.3121C425.173 58.3121 429.478 57.9888 441.069 57.9888C450.786 57.9888 458.957 60.5808 464.808 65.5489C471.875 71.5976 475.627 80.0214 475.627 90.281C475.627 104.861 468.894 113.285 462.159 118.037C455.423 123.004 446.701 125.812 434.227 125.812C427.602 125.812 416.228 125.597 406.734 125.491H406.604C406.164 124.625 407.417 121.258 408.194 121.169C410.761 120.882 411.455 120.784 412.647 120.297C414.652 119.481 415.126 118.47 415.348 114.905C415.678 108.21 415.568 100.217 415.568 91.1447C415.568 84.6652 415.678 72.0284 415.457 68.0324C415.126 64.6853 413.693 63.8216 410.821 63.1717C409.385 62.8495 407.399 62.5251 404.639 62.2007C404.417 61.5529 406.118 58.6365 406.67 57.9888V57.9888ZM504.862 63.2824C504.422 63.3908 503.869 64.4715 503.869 65.0107C503.761 68.8982 503.651 79.0504 503.651 86.0702C503.651 86.285 503.979 86.6094 504.202 86.6094C505.637 86.719 509.168 86.8264 512.15 86.8264C516.345 86.8264 518.776 86.285 520.099 85.6373C523.631 83.91 525.287 80.1299 525.287 76.0265C525.287 66.6306 518.663 63.0654 508.839 63.0654C508.177 63.0654 506.299 63.0654 504.862 63.2824ZM529.924 106.483C529.924 96.9786 522.86 91.5786 509.941 91.5786C509.39 91.5786 505.304 91.4701 504.311 91.6871C503.979 91.7935 503.651 92.0104 503.651 92.2263C503.651 99.0313 503.538 109.939 503.869 114.257C504.091 116.094 505.417 118.687 507.072 119.442C508.839 120.415 512.811 120.631 515.572 120.631C523.19 120.631 529.924 116.418 529.924 106.483V106.483ZM484.924 57.9898C485.917 57.9898 488.856 58.3132 496.362 58.3132C503.428 58.3132 509.168 58.0983 516.013 58.0983C524.514 58.0983 536.216 61.1222 536.216 73.6504C536.216 79.8055 531.803 84.7747 526.061 87.1508C525.73 87.2582 525.73 87.4741 526.061 87.5826C534.232 89.6333 541.407 94.6024 541.407 104.106C541.407 113.393 535.556 119.226 527.055 122.899C521.865 125.165 515.463 125.921 508.947 125.921C503.979 125.921 490.667 125.382 483.268 125.492C482.495 125.165 483.977 121.71 484.637 121.17C486.406 121.063 487.767 120.936 489.645 120.396C492.293 119.748 492.608 118.903 492.94 115.014C493.162 111.667 493.162 99.678 493.162 91.1457C493.162 79.4822 493.271 71.5987 493.162 67.7102C493.049 64.6863 491.947 63.7131 489.848 63.1739C488.194 62.8505 485.434 62.5251 483.225 62.2017C482.671 61.6614 484.372 58.4217 484.924 57.9898" fill="#C0BDBA"/>
<path d="M89.9576 125.766C89.7729 125.476 89.5786 124.618 89.6194 123.584C89.6505 122.797 89.8073 122.299 89.9566 122.128C92.0386 121.802 93.0243 121.582 94.1947 121.273C96.1458 120.793 96.8813 119.748 96.9973 117.276C97.3173 111.451 97.3355 100.529 97.2185 92.8476L97.2196 92.6211C97.2292 91.7968 97.2421 90.6704 96.1973 89.8759C94.6661 88.8761 92.757 88.0497 90.342 87.3328C89.4175 87.0616 88.9064 86.5798 88.9333 86.0171C88.9622 85.4758 89.5421 84.7876 90.7479 84.5579C93.9446 84.2313 102.326 82.2541 105.615 80.7512C105.81 80.9852 106.118 81.4936 106.058 82.3041C106.033 82.6444 106.004 82.9997 105.973 83.3698C105.88 84.4547 105.774 85.6853 105.774 86.9116C105.774 87.2733 106.169 87.6158 106.589 87.6158C106.696 87.6155 106.801 87.5942 106.899 87.5531C106.997 87.512 107.086 87.4519 107.161 87.3764C113.429 82.5157 119.035 80.7821 121.922 80.7821C126.665 80.7821 130.355 83.0241 133.207 87.6349C133.375 87.8795 133.599 88.0072 133.851 88.0072C133.969 88.0065 134.085 87.9773 134.19 87.922C134.294 87.8668 134.382 87.7872 134.448 87.6902C140.212 83.3645 145.925 80.7821 149.743 80.7821C158.782 80.7821 164.18 87.4764 164.18 98.6847C164.18 101.906 164.148 105.989 164.119 109.799C164.091 113.143 164.067 116.278 164.067 118.447C164.067 118.973 164.778 120.431 165.85 120.723C167.171 121.361 169.082 121.685 171.491 122.097L171.584 122.112C171.768 122.754 171.384 125.254 171.017 125.765C170.419 125.761 169.59 125.717 168.558 125.666C166.681 125.571 164.109 125.443 161.114 125.443C155.11 125.443 151.971 125.56 148.974 125.751C148.749 125.009 148.669 122.617 148.945 122.119C150.692 121.795 151.557 121.577 152.607 121.268C154.518 120.645 155.068 119.788 155.18 117.276C155.224 115.489 155.571 99.7685 154.955 96.0363C154.389 92.1691 151.442 87.6413 144.997 87.6413C142.607 87.6413 138.745 88.624 135.063 91.3873C134.834 91.6064 134.702 92.034 134.702 92.3137L134.708 92.386C135.142 94.4005 135.142 96.75 135.142 100.306C135.142 102.332 135.129 104.481 135.117 106.616C135.093 110.95 135.069 115.042 135.142 118.134C135.142 120.242 136.431 120.744 137.467 121.15C138.028 121.274 138.476 121.38 138.923 121.485C139.791 121.693 140.688 121.907 142.017 122.117C142.2 122.532 142.215 123.773 141.966 124.835C141.826 125.421 141.666 125.679 141.581 125.763C138.242 125.65 134.816 125.55 129.872 125.55C128.373 125.55 125.926 125.614 123.768 125.672C122.017 125.717 120.36 125.763 119.419 125.767C119.282 125.554 119.091 124.87 119.091 123.885C119.091 122.969 119.261 122.323 119.435 122.125C119.9 122.039 120.342 121.962 120.763 121.887C121.923 121.683 122.925 121.508 123.886 121.274C125.522 120.78 126.136 119.88 126.255 117.821C126.574 113.015 126.825 99.1697 126.137 95.7024C124.967 90.1376 121.765 87.3179 116.624 87.3179C113.607 87.3179 109.802 88.7538 106.691 91.0618C106.168 91.4416 105.774 92.3999 105.774 93.2848C105.774 94.9334 105.769 96.8968 105.763 99.0017C105.741 105.956 105.716 114.61 105.888 118.356C105.992 119.507 106.397 120.877 108.592 121.383C109.07 121.515 109.9 121.653 110.861 121.81C111.414 121.901 112.018 122.001 112.64 122.111C112.863 122.706 112.726 125.04 112.344 125.766C111.385 125.761 110.205 125.706 108.85 125.647C106.782 125.557 104.209 125.443 101.276 125.443C97.8262 125.443 95.4242 125.557 93.4936 125.647C92.1997 125.708 91.0776 125.762 89.9576 125.766ZM199.485 85.3737C197.476 85.3737 195.599 85.8948 194.203 86.8414C190.369 89.1484 188.418 93.7549 188.418 100.519C188.418 113.191 194.831 122.039 204.011 122.039C206.72 122.039 208.927 121.268 210.762 119.684C213.583 117.405 215.079 112.755 215.079 106.243C215.079 93.7602 208.811 85.3737 199.485 85.3737ZM201.252 126.738C184.666 126.738 178.757 114.701 178.757 103.437C178.757 95.5684 182.008 89.4154 188.425 85.1514C192.986 82.3775 198.431 80.7821 203.35 80.7821C216.009 80.7821 224.851 89.7866 224.851 102.682C224.851 111.448 221.318 118.368 214.635 122.693C211.429 124.638 205.868 126.738 201.252 126.738ZM371.252 85.3737C369.241 85.3737 367.363 85.8948 365.969 86.8414C362.136 89.1484 360.184 93.7528 360.184 100.519C360.184 113.191 366.595 122.039 375.777 122.039C378.486 122.039 380.694 121.268 382.529 119.683C385.348 117.406 386.845 112.756 386.845 106.245C386.845 93.7613 380.578 85.3737 371.252 85.3737ZM373.018 126.738C356.431 126.738 350.521 114.702 350.521 103.438C350.521 95.5673 353.775 89.4143 360.192 85.1503C364.752 82.3764 370.197 80.7821 375.115 80.7821C387.775 80.7821 396.618 89.7887 396.618 102.681C396.618 111.449 393.084 118.369 386.401 122.69C383.195 124.637 377.635 126.738 373.018 126.738ZM315.745 84.9429C310.632 84.9429 307.328 88.9378 307.328 95.1216C307.328 101.361 310.169 108.646 318.175 108.646C319.55 108.646 322.043 108.042 323.278 106.695C325.138 105.004 326.352 101.51 326.352 97.82C326.352 89.7557 322.387 84.9429 315.745 84.9429ZM315.085 127.601C313.164 127.601 311.767 128.154 310.932 128.618C306.885 131.185 305.009 133.749 305.009 136.701C305.009 139.484 306.101 141.695 308.447 143.662C311.289 146.044 315.12 147.203 320.162 147.203C330.076 147.203 334.521 141.928 334.521 136.7C334.521 133.063 332.675 130.624 328.88 129.244C325.954 128.187 321.067 127.601 315.085 127.601ZM315.745 152.66C309.791 152.66 305.499 151.416 301.835 148.626C298.27 145.904 296.672 141.865 296.672 139.075C296.672 138.273 296.864 136.199 298.625 134.218C299.663 133.051 302.066 130.867 307.618 127.091C307.705 127.056 307.78 126.997 307.831 126.919C307.883 126.842 307.909 126.75 307.907 126.658C307.91 126.554 307.877 126.453 307.814 126.371C307.751 126.289 307.66 126.231 307.559 126.208C302.983 124.474 301.604 121.63 301.187 120.087C301.175 120.007 301.16 119.927 301.142 119.848C301.01 119.243 300.888 118.671 301.714 118.083C302.355 117.631 303.384 117.028 304.474 116.392C306.082 115.451 307.905 114.387 308.914 113.531C308.992 113.452 309.05 113.356 309.083 113.25C309.115 113.145 309.121 113.033 309.101 112.924C309.085 112.816 309.043 112.712 308.979 112.623C308.914 112.533 308.829 112.461 308.73 112.411C301.959 110.159 298.55 105.182 298.55 97.6041C298.55 92.7115 300.831 88.289 304.805 85.4683C307.528 83.34 314.363 80.7789 318.792 80.7789L319.049 80.7821C323.606 80.8884 326.174 81.8329 329.728 83.1348C331.659 83.8421 333.485 84.1292 336.041 84.1292C339.812 84.1292 341.459 82.9465 342.872 81.5883C342.953 81.7563 343.146 82.2903 343.232 83.5198C343.322 84.7738 342.976 86.6308 342.008 87.9572C341.235 89.0144 339.449 89.7802 337.761 89.7802C337.592 89.7802 337.426 89.7728 337.267 89.7557C335.53 89.5877 334.713 89.3367 334.705 89.3335L334.28 89.4803C334.145 89.6738 334.232 89.8897 334.343 90.162C334.37 90.228 334.397 90.2897 334.405 90.3311C334.628 91.2054 335.021 93.7581 335.021 94.4728C335.021 102.42 331.852 105.886 328.427 108.45C325.158 110.891 321.337 112.357 317.032 112.807C316.944 112.807 316.532 112.843 315.71 112.916C315.179 112.964 314.519 113.022 314.421 113.022L314.325 113.035C313.576 113.244 311.635 114.158 311.635 115.858C311.635 117.272 312.515 119.025 316.713 119.338C317.563 119.402 318.476 119.464 319.429 119.529C324.971 119.911 331.892 120.387 335.149 121.48C339.629 123.095 342.418 127.065 342.418 131.841C342.418 138.973 337.292 145.68 328.708 149.777C324.545 151.717 320.316 152.66 315.745 152.66ZM288.511 121.964C286.083 121.64 284.316 121.315 282.219 120.343C281.887 120.127 281.445 119.155 281.445 118.831C281.223 115.482 281.223 105.763 281.223 99.392C281.223 94.2069 280.341 89.6706 278.133 86.4298C275.484 82.7583 271.731 80.5991 266.873 80.5991C262.568 80.5991 256.825 83.5145 252.079 87.5115C251.969 87.6189 251.239 88.3039 251.256 87.2403C251.272 86.1778 251.438 84.0154 251.537 82.6551C251.638 81.2937 250.814 80.6523 250.814 80.6523C247.723 82.1648 239.017 84.2122 235.803 84.5409C233.452 84.9886 232.861 87.2233 235.363 87.9955C235.363 87.9955 235.386 88.004 235.4 88.0082C238.018 88.7879 239.782 89.6207 241.099 90.4801C242.093 91.2363 241.982 92.3169 241.982 93.1816C242.092 100.416 242.092 111.542 241.76 117.588C241.651 119.965 240.987 120.828 239.221 121.261L239.382 121.208C238.037 121.54 236.673 121.793 235.298 121.963C234.745 122.502 234.745 125.634 235.296 126.283C236.402 126.283 242.033 125.958 246.669 125.958C253.071 125.958 256.384 126.283 258.041 126.283C258.702 125.526 258.923 122.61 258.482 121.963C256.604 121.855 255.279 121.638 253.955 121.314C252.189 120.882 251.746 120.019 251.638 118.074C251.417 112.999 251.417 102.2 251.417 94.8547C251.417 92.8019 251.969 91.8308 252.631 91.2905C254.838 89.3462 258.482 88.0518 261.684 88.0518C264.774 88.0518 266.873 89.0229 268.419 90.3173C270.516 92.0467 271.288 94.5303 271.509 96.3671C271.951 100.473 271.84 108.678 271.84 115.807C271.84 119.695 271.509 120.667 270.074 121.099C269.412 121.424 267.646 121.747 265.547 121.963C264.886 122.61 265.106 125.634 265.547 126.283C268.419 126.283 271.731 125.958 276.587 125.958C282.66 125.958 286.524 126.283 288.07 126.283C288.731 125.526 288.951 122.719 288.511 121.964Z" fill="#414044"/>
<path d="M556.94 116.635H558.809C560.32 116.635 560.894 116.114 560.894 114.761C560.894 113.385 560.342 112.932 558.641 112.932H556.94V116.635ZM560.918 122.448L558.714 117.749H556.94V122.448H555.646V111.77H558.835C561.205 111.77 562.188 112.815 562.188 114.761C562.188 116.324 561.444 117.322 560.056 117.608L562.331 122.447L560.918 122.448ZM558.834 109.422C554.496 109.422 551.048 112.815 551.048 117.134C551.047 118.142 551.246 119.142 551.636 120.074C552.026 121.006 552.598 121.852 553.319 122.564C554.04 123.277 554.897 123.841 555.839 124.224C556.781 124.607 557.79 124.802 558.809 124.797C559.826 124.799 560.833 124.603 561.773 124.218C562.713 123.834 563.567 123.27 564.286 122.557C565.005 121.845 565.575 120.999 565.963 120.068C566.351 119.138 566.55 118.14 566.547 117.133C566.547 112.792 563.194 109.422 558.834 109.422ZM558.809 125.557C554.02 125.557 550.283 121.855 550.283 117.11C550.283 112.34 554.02 108.663 558.834 108.663C563.53 108.663 567.337 112.388 567.337 116.99C567.337 121.806 563.601 125.556 558.809 125.556" fill="#C0BDBA"/>
<defs>
<linearGradient id="paint0_linear_156_137" x1="12.1007" y1="76.0819" x2="58.2099" y2="91.8685" gradientUnits="userSpaceOnUse">
<stop stop-color="#929669"/>
<stop offset="0.231" stop-color="#929669"/>
<stop offset="1" stop-color="#FDFCF1"/>
</linearGradient>
<linearGradient id="paint1_linear_156_137" x1="29.0356" y1="1.64723" x2="49.1127" y2="128.07" gradientUnits="userSpaceOnUse">
<stop stop-color="#45AA3A"/>
<stop offset="1" stop-color="#3D9439"/>
</linearGradient>
<linearGradient id="paint2_linear_156_137" x1="-1.70275" y1="73.4397" x2="53.0134" y2="54.9528" gradientUnits="userSpaceOnUse">
<stop stop-color="#41A83B"/>
<stop offset="1" stop-color="#5EBC44"/>
</linearGradient>
</defs>
</svg>
