<svg width="50" height="50" viewBox="0 0 268 153" fill="none" xmlns="http://www.w3.org/2000/svg">
<g clip-path="url(#clip0_156_148)">
<path d="M-0.124146 139.976H8.71335V101.053L22.3942 134.985C24.0086 139.091 26.2184 140.545 30.5518 140.545C34.8859 140.545 37.0103 139.092 38.6254 134.985L52.3062 101.053V139.975H61.1437V101.117C61.1437 97.3255 59.7839 95.4933 56.9803 94.5462C50.2672 92.2083 45.7631 94.23 43.7234 99.285L30.2971 132.773L17.2962 99.285C15.3418 94.23 10.7531 92.2083 4.03998 94.5462C1.23568 95.4933 -0.124146 97.3262 -0.124146 101.116V139.976V139.976ZM68.492 108.295H77.3267V129.739C77.2442 130.904 77.6619 133.638 82.5032 133.722C84.973 133.766 101.566 133.722 101.72 133.722V108.191H110.576C110.616 108.191 110.567 143.009 110.567 143.158C110.616 151.745 101.014 153.61 96.5887 153.754H68.6833V147.123C68.7329 147.123 96.568 147.13 96.6382 147.122C102.326 146.452 101.654 143.299 101.654 142.237V139.652H82.8693C74.1295 139.562 68.565 135.308 68.4961 130.415C68.4893 129.961 68.6847 108.509 68.4913 108.294L68.492 108.295Z" fill="#00618A"/>
<path d="M117.386 139.977H142.794C145.768 139.977 148.657 139.282 150.952 138.081C154.775 136.123 156.645 133.47 156.645 129.994V122.791C156.645 119.947 154.521 117.293 150.357 115.525C148.147 114.576 145.428 114.071 142.794 114.071H132.086C128.518 114.071 126.818 112.871 126.394 110.217C126.308 109.901 126.308 109.648 126.308 109.332V104.847C126.308 104.593 126.308 104.34 126.394 104.025C126.818 102.003 127.754 101.433 130.897 101.118C131.152 101.118 131.492 101.054 131.747 101.054H156.985V94.4842H132.172C128.603 94.4842 126.733 94.7367 125.034 95.3047C119.765 97.1376 117.471 100.044 117.471 105.098V110.849C117.471 115.272 121.975 119.063 129.537 119.947C130.388 120.01 131.237 120.073 132.086 120.073H141.264C141.604 120.073 141.944 120.073 142.199 120.137C145.003 120.39 146.192 120.958 147.043 122.096C147.552 122.664 147.722 123.233 147.722 123.865V129.614C147.722 130.31 147.298 131.195 146.448 131.952C145.683 132.711 144.409 133.217 142.709 133.343C142.369 133.343 142.114 133.406 141.774 133.406H117.386L117.386 139.977ZM211.776 128.541C211.776 135.301 216.279 139.093 225.372 139.851C226.221 139.914 227.072 139.977 227.921 139.977H250.95V133.406H227.751C222.568 133.406 220.613 131.952 220.613 128.478V94.4834H211.776V128.541ZM162.285 128.885V105.458C162.285 99.5062 166.032 95.8964 173.44 94.7566C174.23 94.6309 175.027 94.5676 175.824 94.5671H192.599C193.45 94.5671 194.218 94.6308 195.069 94.7566C202.477 95.8964 206.224 99.5062 206.224 105.458V128.885C206.224 133.712 204.633 136.297 200.965 137.981L209.671 146.745H199.409L192.367 139.655L185.276 140.156H175.824C174.206 140.156 172.504 139.902 170.63 139.332C165.01 137.623 162.285 134.331 162.285 128.885ZM171.823 128.316C171.823 128.633 171.909 128.949 171.994 129.329C172.505 132.051 174.804 133.571 178.295 133.571H186.324L178.949 126.145H189.209L195.642 132.622C196.827 131.917 197.608 130.839 197.88 129.456C197.965 129.139 197.965 128.822 197.965 128.506V106.029C197.965 105.775 197.965 105.458 197.88 105.141C197.369 102.609 195.07 101.153 191.664 101.153H178.295C174.379 101.153 171.824 103.053 171.824 106.029L171.823 128.316Z" fill="#E48E00"/>
<path d="M258.724 83.5825C253.293 83.4182 249.143 83.9816 245.595 85.6502C244.587 86.1246 242.98 86.1369 242.815 87.5461C243.369 88.1939 243.455 89.161 243.896 89.9577C244.742 91.4866 246.173 93.5352 247.449 94.6097C248.843 95.7841 250.28 97.039 251.775 98.056C254.433 99.8635 257.401 100.896 259.961 102.707C261.469 103.775 262.968 105.12 264.44 106.325C265.168 106.92 265.657 107.847 266.603 108.221V108.048C266.106 107.342 265.978 106.372 265.521 105.635L263.513 103.396C261.55 100.489 259.057 97.9362 256.408 95.8155C254.295 94.1239 249.566 91.8397 248.685 89.0965L248.53 88.9238C250.028 88.7357 251.782 88.1309 253.165 87.7188C255.487 87.0234 257.562 87.203 259.961 86.5122C261.041 86.1676 262.123 85.8222 263.205 85.4783V84.7891C261.992 83.4013 261.128 81.5654 259.805 80.3097C256.347 77.0246 252.572 73.7426 248.685 71.0063C246.529 69.4882 243.864 68.5019 241.579 67.2155C240.811 66.7833 239.46 66.5585 238.953 65.837C237.752 64.1307 237.099 61.967 236.172 59.9791C234.234 55.8152 232.33 51.2668 230.612 46.8849C229.44 43.8976 228.675 40.9518 227.214 38.2708C220.2 25.4091 212.65 17.647 200.954 10.0161C198.466 8.39351 195.47 7.75185 192.303 6.91523L187.206 6.56984C186.169 6.08629 185.09 4.67171 184.116 3.98553C180.242 1.25616 170.305 -4.68229 167.435 3.12435C165.623 8.05196 170.143 12.8606 171.759 15.3574C172.894 17.1089 174.347 19.0723 175.158 21.0426C175.691 22.3374 175.783 23.6353 176.239 25.0054C177.363 28.3803 178.338 32.0514 179.792 35.1699C180.526 36.748 181.335 38.4105 182.264 39.8212C182.833 40.6878 183.808 41.0692 183.962 42.4063C183.008 43.8953 182.954 46.2056 182.418 48.0914C180.004 56.582 180.914 67.1341 184.426 73.418C185.504 75.3468 188.042 79.4838 191.531 77.8973C194.584 76.5104 193.902 72.2129 194.775 68.422C194.973 67.5624 194.851 66.9299 195.238 66.3543V66.527L198.019 72.7287C200.076 76.4244 203.729 80.2874 206.824 82.894C208.429 84.2456 209.692 86.5828 211.767 87.3734V87.2007H211.612C211.21 86.5022 210.581 86.2121 210.068 85.6502C208.859 84.3285 207.515 82.6852 206.515 81.1709C203.7 76.9087 201.212 72.2444 198.946 67.3882C197.864 65.0702 196.923 62.5112 196.011 60.1518C195.659 59.2423 195.663 57.8668 194.93 57.3948C193.931 59.1241 192.459 60.5225 191.686 62.5642C190.45 65.8278 190.291 69.8074 189.833 73.9345C189.562 74.0427 189.681 73.9683 189.523 74.1064C187.372 73.5277 186.616 71.0578 185.817 68.9386C183.794 63.5796 183.418 54.9502 185.197 48.7815C185.658 47.185 187.739 42.1576 186.897 40.6839C186.495 39.2125 185.168 38.3613 184.426 37.2377C183.507 35.8476 182.59 34.0178 181.954 32.4129C180.299 28.2344 179.526 23.544 177.784 19.3202C176.951 17.3008 175.542 15.2576 174.386 13.4623C173.105 11.4744 171.671 10.0084 170.678 7.60372C170.325 6.74944 169.846 5.38169 170.369 4.50286C170.536 3.91031 170.771 3.6624 171.296 3.46898C172.192 2.69914 174.688 3.72534 175.621 4.15823C178.098 5.3057 180.165 6.39868 182.264 7.94834C183.271 8.69362 184.29 10.1343 185.507 10.5334H186.897C189.072 11.0906 191.508 10.7061 193.539 11.3946C197.13 12.6119 200.348 14.5047 203.27 16.5632C212.174 22.8332 219.454 31.759 224.433 42.4063C225.234 44.1202 225.581 45.7566 226.287 47.5749C227.711 51.2422 229.504 55.0154 230.92 58.6014C232.334 62.1781 233.711 65.7894 235.709 68.7667C236.76 70.3317 240.817 71.1714 242.66 72.0395C243.953 72.6489 246.07 73.2836 247.295 74.1064C249.633 75.6799 251.898 77.5527 254.092 79.2758C255.188 80.137 258.557 82.0259 258.725 83.5825H258.724Z" fill="#00618A"/>
<path fill-rule="evenodd" clip-rule="evenodd" d="M189.678 17.9412C188.546 17.9181 187.745 18.0793 186.898 18.285V18.4577H187.052C187.593 19.6958 188.546 20.4925 189.215 21.5586C189.729 22.7649 190.244 23.9709 190.76 25.1768L190.914 25.0048C191.87 24.2526 192.309 23.0499 192.304 21.2147C191.92 20.7649 191.863 20.2 191.532 19.6635C191.09 18.9482 190.235 18.5429 189.678 17.9412V17.9412Z" fill="#00618A"/>
<path fill-rule="evenodd" clip-rule="evenodd" d="M255.098 133.218C255.098 137.557 258.172 140.482 261.611 140.482C265.05 140.482 268.124 137.557 268.124 133.218C268.124 128.879 265.05 125.955 261.611 125.955C258.172 125.955 255.098 128.879 255.098 133.218H255.098ZM266.665 133.218C266.665 136.511 264.408 138.971 261.611 138.971C258.781 138.971 256.557 136.511 256.557 133.218C256.557 129.925 258.78 127.464 261.611 127.464C264.408 127.464 266.665 129.925 266.665 133.218ZM263.366 137.363H264.824L262.689 133.722C263.835 133.586 264.702 132.966 264.702 131.456C264.702 129.77 263.748 129.073 261.907 129.073H259.007V137.363H260.257V133.78H261.42L263.366 137.363V137.363ZM260.257 132.618V130.235H261.698C262.445 130.235 263.348 130.39 263.348 131.359C263.348 132.52 262.532 132.618 261.593 132.618H260.257V132.618Z" fill="#E48E00"/>
</g>
<defs>
<clipPath id="clip0_156_148">
<rect width="268" height="153" fill="white"/>
</clipPath>
</defs>
</svg>
