<svg width="24" height="24" viewBox="0 0 156 161" fill="none" xmlns="http://www.w3.org/2000/svg">
<path d="M117.736 118.402C118.795 109.584 118.477 108.29 125.046 109.718L126.714 109.865C131.765 110.095 138.372 109.053 142.254 107.249C150.61 103.372 155.565 96.8982 147.326 98.5992C128.531 102.477 127.239 96.1124 127.239 96.1124C147.085 66.6653 155.382 29.285 148.22 20.1351C128.688 -4.82262 94.8783 6.97968 94.3126 7.2861L94.1325 7.31973C90.4188 6.54883 86.2628 6.08845 81.594 6.01297C73.0887 5.87321 66.6349 8.24272 61.7393 11.956C61.7393 11.956 1.42437 -12.893 4.23033 43.2061C4.8271 55.1399 21.3363 133.508 41.0266 109.837C48.2233 101.181 55.1782 93.8628 55.1782 93.8628C58.6318 96.1572 62.7665 97.3276 67.1031 96.9072L67.4383 96.6213C67.3333 97.696 67.3796 98.7476 67.5724 99.9919C62.5008 105.659 63.9911 106.655 53.8498 108.742C43.5897 110.857 49.6175 114.621 53.552 115.605C58.3231 116.798 69.3605 118.488 76.8202 108.048L76.5232 109.239C78.513 110.831 78.3785 120.681 78.6606 127.718C78.9431 134.756 79.4143 141.324 80.8489 145.196C82.2834 149.067 83.9762 159.04 97.3043 156.184C108.443 153.797 116.96 150.361 117.736 118.402" fill="black"/>
<path d="M117.736 118.402C118.795 109.584 118.477 108.29 125.046 109.718L126.714 109.865C131.765 110.095 138.372 109.053 142.254 107.249C150.61 103.372 155.565 96.8982 147.326 98.5992C128.531 102.477 127.239 96.1124 127.239 96.1124C147.085 66.6653 155.382 29.285 148.22 20.1351C128.688 -4.82262 94.8783 6.97968 94.3126 7.2861L94.1325 7.31973C90.4188 6.54883 86.2628 6.08845 81.594 6.01297C73.0887 5.87321 66.6349 8.24272 61.7393 11.956C61.7393 11.956 1.42437 -12.893 4.23033 43.2061C4.8271 55.1399 21.3363 133.508 41.0266 109.837C48.2233 101.181 55.1782 93.8628 55.1782 93.8628C58.6318 96.1572 62.7665 97.3276 67.1031 96.9072L67.4383 96.6213C67.3333 97.696 67.3796 98.7476 67.5724 99.9919C62.5008 105.659 63.9911 106.655 53.8498 108.742C43.5897 110.857 49.6175 114.621 53.552 115.605C58.3231 116.798 69.3605 118.488 76.8202 108.048L76.5232 109.239C78.513 110.831 78.3785 120.681 78.6606 127.718C78.9431 134.756 79.4143 141.324 80.8489 145.196C82.2834 149.067 83.9762 159.04 97.3043 156.184C108.443 153.797 116.96 150.361 117.736 118.402" stroke="black" stroke-width="7.99046"/>
<path d="M147.328 98.5982C128.531 102.476 127.239 96.1114 127.239 96.1114C147.085 66.6625 155.382 29.2814 148.222 20.1326C128.69 -4.82362 94.8784 6.97906 94.3142 7.28548L94.1326 7.31799C90.4189 6.54709 86.2629 6.08783 81.5919 6.0116C73.0865 5.87222 66.635 8.24135 61.7394 11.9539C61.7394 11.9539 1.42335 -12.894 4.22857 43.2047C4.82534 55.1393 21.3341 133.507 41.0252 109.836C48.2223 101.181 55.1761 93.8622 55.1761 93.8622C58.63 96.1566 62.7648 97.327 67.0994 96.9066L67.4361 96.6207C67.3315 97.6954 67.3793 98.747 67.571 99.9913C62.4983 105.659 63.9889 106.654 53.8484 108.741C43.5875 110.856 49.6153 114.621 53.5509 115.604C58.3221 116.798 69.3602 118.488 76.8185 108.047L76.521 109.238C78.5086 110.83 79.9043 119.593 79.6704 127.538C79.4365 135.481 79.2803 140.935 80.8464 145.195C82.4125 149.455 83.9733 159.04 97.304 156.183C108.443 153.796 114.215 147.61 115.018 137.292C115.588 129.957 116.878 131.041 116.959 124.482L117.994 121.377C119.186 111.434 118.183 108.225 125.046 109.717L126.713 109.864C131.764 110.094 138.375 109.052 142.255 107.248C150.61 103.371 155.565 96.8973 147.327 98.5982H147.328Z" fill="#336791"/>
<path d="M94.2478 7.03827C92.1585 7.69333 127.822 -5.99905 148.09 19.8992C155.249 29.0484 146.953 66.4298 127.107 95.8795M77.6254 104.299C77.1078 122.802 77.7554 141.434 79.5659 145.962C81.3775 150.49 85.2544 159.298 98.5862 156.442C109.724 154.054 113.777 149.433 115.535 139.234C116.83 131.729 119.327 110.888 119.648 106.618L77.6254 104.299ZM61.6461 11.5407C61.6461 11.5407 1.28893 -13.1281 4.09489 42.9709C4.69166 54.9052 21.2016 133.276 40.8923 109.604C48.0878 100.947 54.5955 94.1576 54.5955 94.1576L61.6461 11.5407Z" stroke="white" stroke-width="2.66349" stroke-linecap="round" stroke-linejoin="round"/>
<path d="M127.107 95.8795C127.107 95.8795 128.4 102.245 147.197 98.3656C155.433 96.6646 150.477 103.139 142.124 107.018C135.269 110.2 119.9 111.015 119.648 106.619C119.002 95.2756 127.737 98.7217 127.107 95.8795C126.537 93.3198 122.631 90.8075 120.047 84.5428C117.791 79.0747 89.1076 37.1419 128.001 43.3696C129.426 43.0748 117.857 6.37458 81.4584 5.77781C45.0676 5.18104 46.2615 50.5305 46.2615 50.5305" stroke="white" stroke-width="2.66349" stroke-linecap="round" stroke-linejoin="bevel"/>
<path d="M67.4382 99.7587C62.3648 105.426 63.8569 106.421 53.7156 108.509C43.4547 110.624 49.4833 114.388 53.4178 115.372C58.1889 116.566 69.2271 118.256 76.6853 107.813C78.9566 104.633 76.6719 99.5595 73.552 98.2662C72.0446 97.6422 70.029 96.8593 67.4382 99.7587V99.7587Z" stroke="white" stroke-width="2.66349" stroke-linecap="round" stroke-linejoin="round"/>
<path d="M67.1061 99.6597C66.5949 96.3272 68.201 92.3621 69.9221 87.7232C72.5087 80.7631 78.4768 73.8018 73.7026 51.7233C70.1441 35.2705 46.276 48.2993 46.2611 50.5301C46.2465 52.7603 47.3407 61.8377 45.8624 72.4083C43.9334 86.202 54.6394 97.8679 66.9674 96.6744" stroke="white" stroke-width="2.66349" stroke-linecap="round" stroke-linejoin="round"/>
<path d="M61.4269 50.1952C61.3193 50.9575 62.8219 52.9903 64.7811 53.262C66.7369 53.5348 68.411 51.9459 68.5171 51.1847C68.6233 50.4228 67.1226 49.5835 65.1626 49.3107C63.2057 49.0379 61.5308 49.4351 61.4273 50.1952H61.4269Z" fill="white" stroke="white" stroke-width="0.887829"/>
<path d="M121 48.642C121.107 49.4043 119.606 51.4371 117.646 51.7088C115.689 51.9815 114.015 50.3927 113.908 49.6315C113.804 48.8695 115.305 48.0303 117.263 47.7575C119.221 47.4847 120.894 47.8819 121 48.6423V48.642Z" fill="white" stroke="white" stroke-width="0.444021"/>
<path d="M128.001 43.3687C128.324 49.3453 126.714 53.4162 126.511 59.7784C126.211 69.0263 130.92 79.6111 123.824 90.209" stroke="white" stroke-width="2.66349" stroke-linecap="round" stroke-linejoin="round"/>
</svg>
