<svg
                width="25"
                height="26"
                viewBox="0 0 25 26"
                fill="none"
                xmlns="http://www.w3.org/2000/svg"
                className="mt-1.5"
              >
                <path
                  d="M1.5 0.999874L0 2.49987L3.3 7.12137C3.43892 7.31599 3.62236 7.47457 3.83502 7.5839C4.04767 7.69323 4.28339 7.75014 4.5225 7.74987H4.6275C4.82472 7.74972 5.02003 7.78846 5.20226 7.86387C5.3845 7.93929 5.55007 8.0499 5.6895 8.18938L9.702 12.2019L5.7765 16.1829C5.10509 15.9852 4.39686 15.9468 3.708 16.0705C3.01913 16.1943 2.36858 16.4769 1.80795 16.8958C1.24732 17.3148 0.792031 17.8587 0.478205 18.4843C0.164379 19.1099 0.000648302 19.8 0 20.4999C0.000899195 21.1448 0.140406 21.782 0.409067 22.3682C0.677729 22.9545 1.06927 23.4762 1.55716 23.898C2.04505 24.3197 2.61789 24.6317 3.23687 24.8127C3.85586 24.9937 4.50652 25.0396 5.14477 24.9472C5.78303 24.8548 6.39396 24.6262 6.93619 24.2771C7.47842 23.928 7.93926 23.4664 8.28751 22.9236C8.63576 22.3808 8.86326 21.7695 8.95462 21.131C9.04597 20.4926 8.99904 19.8421 8.817 19.2234L12.798 15.2979L14.25 16.7499L13.7925 18.1209C13.7046 18.3851 13.692 18.6687 13.7561 18.9397C13.8202 19.2107 13.9585 19.4585 14.1555 19.6554L19.1895 24.6894C19.4708 24.9706 19.8523 25.1286 20.25 25.1286C20.6477 25.1286 21.0292 24.9706 21.3105 24.6894L23.6895 22.3104C23.9707 22.0291 24.1287 21.6476 24.1287 21.2499C24.1287 20.8521 23.9707 20.4707 23.6895 20.1894L18.6555 15.1554C18.4586 14.9584 18.2108 14.8201 17.9398 14.756C17.6688 14.6919 17.3853 14.7045 17.121 14.7924L15.75 15.2499L14.31 13.8099L18.33 9.84537C18.9969 10.0234 19.6957 10.0459 20.3727 9.91109C21.0496 9.77631 21.6866 9.48787 22.2344 9.068C22.7823 8.64813 23.2264 8.10806 23.5325 7.48942C23.8386 6.87078 23.9985 6.1901 24 5.49987C24 5.09637 23.9475 4.70487 23.847 4.33437L20.637 7.54587L18 6.99987L17.454 4.36437L20.6655 1.15287C19.9015 0.947466 19.0969 0.947083 18.3328 1.15176C17.5686 1.35644 16.8719 1.75895 16.3129 2.31872C15.7539 2.87848 15.3524 3.57572 15.1487 4.34016C14.9451 5.10459 14.9466 5.9092 15.153 6.67287L11.193 10.6899L7.1895 6.68937C6.90818 6.40814 6.75008 6.02667 6.75 5.62887V5.52237C6.75002 5.28351 6.693 5.0481 6.58368 4.83573C6.47437 4.62335 6.31591 4.44015 6.1215 4.30137L1.5 0.999874ZM15.969 16.9689C16.0387 16.899 16.1214 16.8436 16.2126 16.8058C16.3037 16.768 16.4013 16.7485 16.5 16.7485C16.5987 16.7485 16.6963 16.768 16.7874 16.8058C16.8786 16.8436 16.9613 16.899 17.031 16.9689L21.531 21.4689C21.6007 21.5386 21.656 21.6214 21.6938 21.7125C21.7315 21.8036 21.7509 21.9013 21.7509 21.9999C21.7509 22.0985 21.7315 22.1961 21.6938 22.2872C21.656 22.3784 21.6007 22.4611 21.531 22.5309C21.4613 22.6006 21.3785 22.6559 21.2874 22.6937C21.1963 22.7314 21.0986 22.7508 21 22.7508C20.9014 22.7508 20.8037 22.7314 20.7126 22.6937C20.6215 22.6559 20.5387 22.6006 20.469 22.5309L15.969 18.0309C15.8992 17.9612 15.8437 17.8784 15.8059 17.7873C15.7681 17.6962 15.7487 17.5985 15.7487 17.4999C15.7487 17.4012 15.7681 17.3035 15.8059 17.2124C15.8437 17.1213 15.8992 17.0385 15.969 16.9689ZM4.5 17.4999L5.2065 17.8629L6 17.9019L6.4305 18.5694L7.098 18.9999L7.137 19.7934L7.5 20.4999L7.137 21.2064L7.098 21.9999L6.4305 22.4304L6 23.0979L5.2065 23.1369L4.5 23.4999L3.7935 23.1369L3 23.0979L2.5695 22.4304L1.902 21.9999L1.863 21.2064L1.5 20.4999L1.863 19.7934L1.902 18.9999L2.5695 18.5694L3 17.9019L3.7935 17.8629L4.5 17.4999Z"
                  fill="#FFFFFF"
                />
              </svg>