<svg xmlns="http://www.w3.org/2000/svg" version="1.1" xmlns:xlink="http://www.w3.org/1999/xlink" xmlns:svgjs="http://svgjs.com/svgjs" width="1440" height="560" preserveAspectRatio="none" viewBox="0 0 1440 560">
    <g mask="url(&quot;#SvgjsMask1007&quot;)" fill="none">
        <path d="M535.239,14.569C552.223,14.51,569.773,10.849,579.339,-3.185C590.143,-19.035,593.147,-39.932,583.811,-56.689C574.26,-73.832,554.862,-82.568,535.239,-82.34C516.024,-82.117,497.991,-72.338,488.581,-55.584C479.353,-39.154,480.169,-18.567,490.605,-2.876C500.086,11.38,518.118,14.628,535.239,14.569" fill="rgba(195, 68, 63, 1)" class="triangle-float3"></path>
        <path d="M1277.017,377.553C1303.259,377.412,1323.568,357.452,1336.693,334.728C1349.823,311.995,1356.279,284.805,1343.984,261.61C1330.978,237.073,1304.788,222.063,1277.017,222.145C1249.383,222.226,1223.8,237.655,1210.727,262.001C1198.291,285.161,1203.137,312.574,1216.218,335.376C1229.373,358.307,1250.581,377.695,1277.017,377.553" fill="rgba(195, 68, 63, 1)" class="triangle-float1"></path>
        <path d="M165.556,520.897C181.403,520.925,192.083,506.747,200.106,493.081C208.27,479.176,215.274,463.02,207.978,448.641C200.126,433.168,182.875,423.934,165.556,424.995C149.693,425.966,138.437,439.153,131.27,453.338C124.887,465.972,124.809,480.337,131.215,492.96C138.373,507.064,149.74,520.869,165.556,520.897" fill="rgba(195, 68, 63, 1)" class="triangle-float2"></path>
        <path d="M423.849,261.551C463.427,260.369,497.735,235.314,516.213,200.294C533.497,167.537,529.32,128.84,510.798,96.767C492.28,64.701,460.849,41.824,423.849,40.353C384.158,38.775,344.923,55.553,324.04,89.343C302.103,124.839,300.482,170.01,321.406,206.113C342.274,242.118,382.253,262.793,423.849,261.551" fill="rgba(195, 68, 63, 1)" class="triangle-float3"></path>
        <path d="M1235.240729257358 43.044464777112076L1321.169330774991 175.36290764369994 1453.487773641579 89.43430612606682 1367.559172123946-42.88413674052105z" fill="rgba(195, 68, 63, 1)" class="triangle-float3"></path>
        <path d="M159.47473856556414 293.55672175656633L223.66922371108302 277.5512389816879 167.5637569760059 189.26225265084878z" fill="rgba(195, 68, 63, 1)" class="triangle-float1"></path>
        <path d="M1226.4333818384603 516.2797108436769L1271.9386933331416 601.8627544855526 1312.016425480336 470.7743993489956z" fill="rgba(195, 68, 63, 1)" class="triangle-float3"></path>
        <path d="M1090.6508995053227 637.7484381121502L1195.9401128152742 516.6270534992283 1074.8187282023523 411.3378401892768 969.5295148924008 532.4592248021987z" fill="rgba(195, 68, 63, 1)" class="triangle-float3"></path>
    </g>
    <defs>
        <mask id="SvgjsMask1007">
            <rect width="1440" height="560" fill="#ffffff"></rect>
        </mask>
        <style>
            @keyframes float1 {
                0%{transform: translate(0, 0)}
                50%{transform: translate(-10px, 0)}
                100%{transform: translate(0, 0)}
            }

            .triangle-float1 {
                animation: float1 5s infinite;
            }

            @keyframes float2 {
                0%{transform: translate(0, 0)}
                50%{transform: translate(-5px, -5px)}
                100%{transform: translate(0, 0)}
            }

            .triangle-float2 {
                animation: float2 4s infinite;
            }

            @keyframes float3 {
                0%{transform: translate(0, 0)}
                50%{transform: translate(0, -10px)}
                100%{transform: translate(0, 0)}
            }

            .triangle-float3 {
                animation: float3 6s infinite;
            }
        </style>
    </defs>
</svg>