<svg xmlns="http://www.w3.org/2000/svg" version="1.1" xmlns:xlink="http://www.w3.org/1999/xlink" xmlns:svgjs="http://svgjs.com/svgjs" width="1440" height="560" preserveAspectRatio="none" viewBox="0 0 1440 560">
    <g mask="url(&quot;#SvgjsMask1007&quot;)" fill="none">
        <rect width="1440" height="560" x="0" y="0" fill="#0e2a47"></rect>
        <path d="M0,463.943C92.631,467.895,190.049,467.204,268.604,417.957C347.51,368.49,411.431,287.146,428.15,195.529C443.867,109.406,379.051,33.013,354.171,-50.922C333.593,-120.343,332.225,-193.392,294.539,-255.219C251.892,-325.186,197.612,-388.095,125.235,-426.511C42.521,-470.414,-51.251,-505.509,-143.154,-487.539C-238.1,-468.974,-322.087,-406.571,-378.538,-328.005C-432.637,-252.712,-430.075,-155.413,-447.254,-64.305C-465.313,31.472,-519.589,130.193,-481.88,220.067C-444.04,310.253,-341.531,351.484,-254.267,395.648C-174.345,436.096,-89.493,460.125,0,463.943" fill="#0b2239"></path>
        <path d="M1440 1256.605C1568.2649999999999 1222.2069999999999 1602.377 1055.228 1701.393 966.736 1779.186 897.211 1905.9279999999999 887.197 1955.85 795.581 2006.4850000000001 702.657 1991.163 586.949 1964.085 484.648 1938.8890000000001 389.45799999999997 1858.93 325.16200000000003 1808.886 240.35899999999998 1744.844 131.836 1748.711-44.29899999999998 1628.902-83.34199999999998 1510.192-122.02700000000004 1415.85 34.793000000000006 1297.182 73.606 1183.8899999999999 110.661 1043.109 60.05200000000002 952.7629999999999 137.80599999999998 861.059 216.72899999999998 847.52 352.621 833.365 472.779 819.49 590.565 832.688 707.451 872.498 819.1700000000001 915.132 938.815 969.144 1058.592 1069.742 1136.133 1174.662 1217.0059999999999 1312.05 1290.9189999999999 1440 1256.605" fill="#113255"></path>
    </g>
    <defs>
        <mask id="SvgjsMask1007">
            <rect width="1440" height="560" fill="#ffffff"></rect>
        </mask>
    </defs>
</svg>