 <svg
            width="24"
            height="24"
            viewBox="0 0 45 45"
            fill="none"
            xmlns="http://www.w3.org/2000/svg"
          >
            <path
              d="M17.9318 22.9966C18.3712 23.5459 19.0835 23.5459 19.523 22.9966L20.3182 22.0025C20.7577 21.4532 20.7577 20.5629 20.3182 20.0136L17.8066 16.875L20.3175 13.7355C20.757 13.1862 20.757 12.2959 20.3175 11.7466L19.5223 10.7525C19.0828 10.2032 18.3705 10.2032 17.9311 10.7525L13.8291 15.8801C13.3896 16.4294 13.3896 17.3197 13.8291 17.869L17.9318 22.9966V22.9966ZM24.6825 22.0034L25.4777 22.9975C25.9172 23.5468 26.6295 23.5468 27.0689 22.9975L31.1709 17.8699C31.6104 17.3206 31.6104 16.4303 31.1709 15.881L27.0689 10.7534C26.6295 10.2041 25.9172 10.2041 25.4777 10.7534L24.6825 11.7475C24.243 12.2968 24.243 13.1871 24.6825 13.7364L27.1934 16.875L24.6825 20.0145C24.243 20.5638 24.243 21.4541 24.6825 22.0034V22.0034ZM43.875 36.5625H26.827C26.775 38.3036 25.7927 39.375 24.525 39.375H20.25C18.9359 39.375 17.9283 37.8396 17.9459 36.5625H1.125C0.50625 36.5625 0 37.1953 0 37.9688V39.375C0 42.4688 2.025 45 4.5 45H40.5C42.975 45 45 42.4688 45 39.375V37.9688C45 37.1953 44.4938 36.5625 43.875 36.5625ZM40.5 4.21875C40.5 1.89844 38.9812 0 37.125 0H7.875C6.01875 0 4.5 1.89844 4.5 4.21875V33.75H40.5V4.21875ZM36 28.125H9V5.625H36V28.125Z"
             
            />
          </svg>